<svg width="40" height="40" viewBox="0 0 40 40" fill="none" xmlns="http://www.w3.org/2000/svg">
<rect opacity="0.24" width="40" height="40" rx="8" fill="#FFA469"/>
<path d="M11 18H10V12.003C10 11.449 10.455 11 10.992 11H29.008C29.1393 10.9997 29.2693 11.0256 29.3905 11.076C29.5117 11.1265 29.6217 11.2005 29.714 11.2938C29.8063 11.3872 29.8791 11.4979 29.9282 11.6197C29.9773 11.7414 30.0017 11.8717 30 12.003V18H29V28.001C29.0004 28.1318 28.975 28.2614 28.9253 28.3824C28.8756 28.5034 28.8026 28.6134 28.7104 28.7062C28.6182 28.7989 28.5086 28.8726 28.3879 28.923C28.2672 28.9735 28.1378 28.9996 28.007 29H11.993C11.8622 28.9996 11.7328 28.9735 11.6121 28.923C11.4914 28.8726 11.3818 28.7989 11.2896 28.7062C11.1974 28.6134 11.1244 28.5034 11.0747 28.3824C11.025 28.2614 10.9996 28.1318 11 28.001V18ZM27 18H13V27H27V18ZM12 13V16H28V13H12Z" fill="#FF8333"/>
<circle cx="27" cy="25" r="4" fill="#FFE9DB" stroke="#FF8333" stroke-width="2"/>
<path d="M25.6316 24.1L25 24.7L26.8947 26.6974L31 22.6L30.3684 22L26.8947 25.3977L25.6316 24.1Z" fill="#FF8333" stroke="#FF8333" stroke-width="0.6"/>
</svg>
