<svg width="40" height="40" viewBox="0 0 40 40" fill="none" xmlns="http://www.w3.org/2000/svg">
<rect opacity="0.24" width="40" height="40" rx="8" fill="#FFA469"/>
<path d="M25 9C25.5523 9 26 9.44772 26 10V11H31V17H28.9813L31.7271 24.5439C31.9033 24.9948 32 25.4856 32 25.999C32 28.2082 30.2091 29.999 28 29.999C26.1365 29.999 24.5707 28.7247 24.1263 27H19.874C19.4299 28.7252 17.8638 30 16 30C14.0555 30 12.4351 28.6125 12.0747 26.7736C11.436 26.4396 11 25.7707 11 25V20V15C11 14.4477 11.4477 14 12 14H19C19.5523 14 20 14.4477 20 15V20C20 20.5523 20.4477 21 21 21H23C23.5523 21 24 20.5523 24 20V11H21V9H25ZM16 24C14.8954 24 14 24.8954 14 26C14 27.1046 14.8954 28 16 28C17.1046 28 18 27.1046 18 26C18 24.8954 17.1046 24 16 24ZM28 23.999C26.8954 23.999 26 24.8944 26 25.999C26 27.1036 26.8954 27.999 28 27.999C29.1046 27.999 30 27.1036 30 25.999C30 25.7587 29.9576 25.5282 29.8799 25.3148L29.8635 25.2714C29.5725 24.5266 28.8479 23.999 28 23.999ZM26.853 17H26V20C26 21.6569 24.6569 23 23 23H21C19.3431 23 18 21.6569 18 20H13V23.3542C13.7329 22.5238 14.8053 22 16 22C17.8638 22 19.4299 23.2748 19.874 25H24.1258C24.5695 23.2743 26.1358 21.999 28 21.999C28.2368 21.999 28.4688 22.0196 28.6943 22.0591L26.853 17ZM18 16H13V18H18V16ZM29 13H26V15H29V13Z" fill="#FF8333"/>
<path d="M19 18V11H9V18H19Z" fill="white" stroke="#FF8333" stroke-width="2" stroke-linejoin="round"/>
<path d="M18.4444 14H9.55555" stroke="#FF8333" stroke-width="2"/>
</svg>
